<svg id="Layer_1" data-name="Layer 1" xmlns="http://www.w3.org/2000/svg" viewBox="0 0 869.77 457.54"><defs><style>.cls-1{fill:#fff;}</style></defs><path class="cls-1" d="M650.89,252q-19.83-20-19.89-68.5t19.74-68.65q19.78-20.14,74.73-20.2l117.47-.13L797.1,36.75l-74,.08q-88.64.11-128.93,35.58C582,83.2,572.65,96.92,566,113.28q11.06,30,11.14,70.26t-11,70.25c6.69,16.33,16,30,28.31,40.73q40.37,35.3,129,35.19l68.41-.09,45.34-57.83-111.57.12Q670.73,272,650.89,252Z"/><path class="cls-1" d="M333,37.27,281,37.33H266.45q-20.62.24-35.72,19.45l-55.88,71.13-56-71Q103.48,37.53,83.05,37.55l-43.91.05q-11.24,0-11.22,9.4,0,4.71,4.3,10l97.14,122.84L26.58,311.28q-4.27,5.52-4.28,10,1.24,9.19,11.45,9.18l43.5-.05q20.43,0,35.52-19.23L175,231.67l62.38,79.38q15.14,19.18,35.56,19.15l66-.07L220.45,179.74Z"/><path class="cls-1" d="M524.66,294.6c12.26-10.76,21.57-24.45,28.22-40.79a142.64,142.64,0,0,0,6.62-20.35c3.57-14.86,5.4-31.46,5.38-49.91s-1.88-35.05-5.5-49.91a142.68,142.68,0,0,0-6.66-20.35c-6.69-16.34-16-30-28.31-40.8Q484,37.11,395.4,37.2l-46.72,0L303,95.1l90.24-.1q54.94-.06,74.78,20t19.89,68.6q0,48.51-19.74,68.54t-74.73,20.1l-84.38.1,45.48,57.75,41.21-.05Q484.37,330,524.66,294.6Z"/><polygon class="cls-1" points="295.11 254.15 294.95 105.67 236.59 179.98 295.11 254.15"/><path class="cls-1" d="M752.07,373.88l22.22-22.71a1.49,1.49,0,0,0-1.07-2.54h-7.88a1.47,1.47,0,0,0-1.08.46l-28.43,29.63,0-28.56a1.5,1.5,0,0,0-1.5-1.5h-6.1a1.5,1.5,0,0,0-1.5,1.5l.06,54.05a1.5,1.5,0,0,0,1.5,1.5h6.1a1.5,1.5,0,0,0,1.5-1.5l0-13.9,9.88-10,19.75,24.83a1.48,1.48,0,0,0,1.17.57h7.64a1.5,1.5,0,0,0,1.17-2.43Z"/><path class="cls-1" d="M701.1,383.15a22.14,22.14,0,0,0,3.92-1.47,18.46,18.46,0,0,0,5.07-3.58,15.16,15.16,0,0,0,3.37-5.13,17.6,17.6,0,0,0,1.19-6.63,16.93,16.93,0,0,0-1.54-7.24,16.26,16.26,0,0,0-4.34-5.61,19.82,19.82,0,0,0-6.64-3.55,27.62,27.62,0,0,0-8.54-1.22l-23.24,0a1.5,1.5,0,0,0-1.49,1.5l.06,54.06a1.5,1.5,0,0,0,1.5,1.49h6.09a1.5,1.5,0,0,0,1.5-1.5l0-19.51h13.19l15.25,20.38a1.51,1.51,0,0,0,1.2.6h7.5a1.49,1.49,0,0,0,1.19-2.4Zm-8-6.79-15.15,0,0-19,15.22,0c4,0,7.16.84,9.3,2.5a8,8,0,0,1,3.07,6.76,9,9,0,0,1-.88,4.06,8.59,8.59,0,0,1-2.48,3,12.18,12.18,0,0,1-3.93,2A17.77,17.77,0,0,1,693.13,376.36Z"/><path class="cls-1" d="M653,356.61a28.42,28.42,0,0,0-9.17-6.39,30.65,30.65,0,0,0-23.73.06,28.58,28.58,0,0,0-9.2,6.49,29.77,29.77,0,0,0-5.93,9.4,30.39,30.39,0,0,0-2.1,11.25A30.81,30.81,0,0,0,605,388.66a28,28,0,0,0,15.09,15.75,30.68,30.68,0,0,0,23.72-.07,28.39,28.39,0,0,0,9.2-6.49,29.59,29.59,0,0,0,5.93-9.4A30.18,30.18,0,0,0,661,377.2,30.71,30.71,0,0,0,658.93,366,28.39,28.39,0,0,0,653,356.61Zm-2.8,28.9a20.9,20.9,0,0,1-4.06,6.6,18.61,18.61,0,0,1-6.18,4.4,19.4,19.4,0,0,1-7.92,1.62,19,19,0,0,1-7.91-1.63,20.15,20.15,0,0,1-6.3-4.45,19.78,19.78,0,0,1-4.13-6.61,23.16,23.16,0,0,1,0-16.32,20.77,20.77,0,0,1,4.06-6.61,18.9,18.9,0,0,1,6.18-4.4,19.47,19.47,0,0,1,7.92-1.62,19,19,0,0,1,7.92,1.64,19.58,19.58,0,0,1,10.43,11.05,22.59,22.59,0,0,1,1.49,8.19A22.16,22.16,0,0,1,650.21,385.51Z"/><path class="cls-1" d="M598.52,348.82h-6.45a1.48,1.48,0,0,0-1.41,1l-14,40.81-13.47-40.92a1.52,1.52,0,0,0-1.43-1h-5a1.48,1.48,0,0,0-1.42,1L542,390.69l-14-40.77a1.48,1.48,0,0,0-1.42-1h-6.64a1.51,1.51,0,0,0-1.41,2l19.37,54.42a1.49,1.49,0,0,0,1.41,1h5.1a1.48,1.48,0,0,0,1.41-1l13.44-39.69,13.46,39.66a1.49,1.49,0,0,0,1.42,1h5.17a1.5,1.5,0,0,0,1.41-1L599.83,351a1.6,1.6,0,0,0,.17-.69A1.49,1.49,0,0,0,598.52,348.82Z"/><path class="cls-1" d="M512.54,348.92l-42.39.05a1.5,1.5,0,0,0-1.5,1.5v5.64a1.5,1.5,0,0,0,1.5,1.49l16.64,0,.05,46.92a1.5,1.5,0,0,0,1.5,1.5h6.11a1.5,1.5,0,0,0,1.49-1.5l-.05-46.92,16.65,0a1.49,1.49,0,0,0,1.49-1.49v-5.64A1.5,1.5,0,0,0,512.54,348.92Z"/><path class="cls-1" d="M461.78,397.47l-31.86,0,0-15.93,28,0a1.5,1.5,0,0,0,1.5-1.5V374.5a1.5,1.5,0,0,0-1.5-1.5l-28,0V357.57l31.47,0a1.5,1.5,0,0,0,1.5-1.5v-5.57a1.5,1.5,0,0,0-1.5-1.49l-39.07,0a1.5,1.5,0,0,0-1.5,1.5l.06,54.05a1.5,1.5,0,0,0,1.5,1.5l39.46,0a1.5,1.5,0,0,0,1.5-1.5V399A1.5,1.5,0,0,0,461.78,397.47Z"/><path class="cls-1" d="M407,349H401a1.5,1.5,0,0,0-1.5,1.49l0,39-31.43-39.89a1.48,1.48,0,0,0-1.18-.57h-5.71a1.5,1.5,0,0,0-1.5,1.5l.06,54.05a1.51,1.51,0,0,0,1.5,1.5h5.95a1.5,1.5,0,0,0,1.5-1.5l0-40L401,405.52a1.51,1.51,0,0,0,1.18.57h4.87a1.5,1.5,0,0,0,1.49-1.5l-.06-54.06A1.5,1.5,0,0,0,407,349Z"/><path class="cls-1" d="M847.83,316.91v1.53h-4.3v11.24h-1.74V318.44h-4.31v-1.53Z"/><path class="cls-1" d="M849.38,316.91h2.48l3.67,10.8,3.65-10.8h2.45v12.77H860v-7.53c0-.26,0-.69,0-1.29s0-1.26,0-1.95l-3.64,10.77h-1.72L851,318.91v.4c0,.31,0,.78,0,1.43s0,1.11,0,1.41v7.53h-1.65Z"/></svg>